<?xml version="1.0" encoding="UTF-8" standalone="no"?>
<svg xmlns="http://www.w3.org/2000/svg" viewBox="0 0 418.2 142.01">
	<path fill="#1d92d3" d="M168.2 121.7V20.4h29.7c10.8 0 19 2.2 24.5 6.7 5.6 4.5 8.4 11.1 8.4 19.8 0 5.2-1.4 9.8-4.3 13.7-2.8 3.9-6.7 6.6-11.7 8.3 5.9 1.3 10.6 4.2 14.1 8.7 3.6 4.5 5.4 9.7 5.4 15.6 0 8.9-2.9 15.9-8.6 20.9-5.7 5-13.7 7.5-24 7.5h-33.5zm8.5-55.9h23.2c7.1-.1 12.6-1.8 16.5-5 3.9-3.2 5.8-7.9 5.8-14.1 0-6.5-2-11.3-6.1-14.4-4-3.1-10.1-4.6-18.3-4.6h-21.2v38.1zm0 7.3v41.4h25.5c7.3 0 13.1-1.9 17.3-5.6 4.3-3.7 6.4-8.9 6.4-15.5 0-6.2-2-11.2-6.1-14.8-4.1-3.6-9.7-5.4-16.9-5.4h-26.2z" />
	<path fill="#1d92d3" d="M315.2 27.7h-52.1v36.7h25c6.9 0 12.8 1.1 17.8 3.4s8.9 5.6 11.5 9.9c2.7 4.3 4 9.4 4 15.2 0 8.9-3 16-8.9 21.1-5.9 5.1-14.2 7.7-24.7 7.7h-33.3V20.4h60.7v7.3zM263 71.6v42.8h24.9c7.8 0 13.9-1.9 18.3-5.8s6.6-9.2 6.6-15.9c0-6.4-2.1-11.5-6.4-15.3-4.2-3.8-10.2-5.7-17.8-5.8H263z" />
	<path fill="#1d92d3" d="M418.2 76.5c0 9.3-1.6 17.5-4.8 24.5-3.2 7-7.8 12.5-13.7 16.3-5.9 3.8-12.8 5.7-20.6 5.7-11.8 0-21.3-4.2-28.5-12.7-7.2-8.5-10.9-19.9-10.9-34.2V65.7c0-9.2 1.6-17.4 4.9-24.5 3.3-7.1 7.8-12.6 13.8-16.4 5.9-3.8 12.8-5.7 20.5-5.7 7.7 0 14.6 1.9 20.5 5.6 5.9 3.8 10.5 9.1 13.7 15.9 3.2 6.9 4.9 14.8 5 23.8v12.1zm-8.5-10.9c0-12.2-2.7-21.7-8.2-28.6-5.5-6.9-13-10.4-22.5-10.4-9.4 0-16.8 3.5-22.4 10.4-5.6 6.9-8.3 16.6-8.3 29v10.6c0 12 2.8 21.5 8.3 28.5 5.5 7 13 10.5 22.5 10.5 9.6 0 17.2-3.5 22.5-10.4 5.4-6.9 8.1-16.6 8.1-29V65.6z" />
	<path fill="#1d92d3" d="M0 70.9L71 142l71-71.1-26.6-26.5L77 82.8l-6 6-6-6-38.4-38.4z" />
	<path fill="#a8d52b" d="M32.57 38.4L70.97 0l38.4 38.4-38.4 38.4z" />
</svg>